# xmcd
#
# Track frame offsets:
#	150
#	24039
#	41380
#	54259
#	73131
#	89193
#	113143
#	137302
#	157354
#	173193
#	187150
#
# Disc length: 2797 seconds
#
# Revision: 3
# Processed by: cddbd v1.5.2PL0 Copyright (c) Steve Scherf et al.
# Submitted via: audiograbber 1.83.01
#
DISCID=950aeb0b
DTITLE=Eva Cassidy - ZPA003 - Eva Cassidy Vol.1
DYEAR=1900
DGENRE=Karaoke 
TTITLE0=Eva Cassidy - Over the Rainbow
TTITLE1=Eva Cassidy - Songbird
TTITLE2=Eva Cassidy - Kathy's Song
TTITLE3=Eva Cassidy - Wade in the Water
TTITLE4=Eva Cassidy - Ain't No Sunshine
TTITLE5=Eva Cassidy - What a Wonderful World
TTITLE6=Eva Cassidy - Bridge Over Troubled Water
TTITLE7=Eva Cassidy  - Autumn Leaves
TTITLE8=Eva Cassidy  - People Get Ready
TTITLE9=Eva Cassidy - At Last
TTITLE10=Eva Cassidy - Fields of Gold
EXTD=
EXTT0=
EXTT1=
EXTT2=
EXTT3=
EXTT4=
EXTT5=
EXTT6=
EXTT7=
EXTT8=
EXTT9=
EXTT10=
PLAYORDER=
